# xmcd CD database file
#
# Track frame offsets:
#	150
#	25254
#	46322
#	67118
#	86680
#	106720
#	126471
#	150241
#	171353
#	190066
#	209382
#	226333
#	249785
#	251136
#
# Disc length: 3676 seconds
#
# Revision: 0
# Processed by: cddbd v1.5.2PL0 Copyright (c) Steve Scherf et al.
# Submitted via: CDex 1.70beta2
#
DISCID=b70e5a0e
DTITLE=Rob Thorworth - Dig It Up
DYEAR=2004
DGENRE=Blues
TTITLE0=Tragic Play
TTITLE1=Drink Me Up
TTITLE2=The Lucky One
TTITLE3=Cheryl Charlemagne
TTITLE4=Under Our Nose
TTITLE5=Eureka, CA
TTITLE6=Boy And Girl
TTITLE7=Shelly
TTITLE8=I Think I can Make It
TTITLE9=Every Now And Then
TTITLE10=The Devils Confusion
TTITLE11=Dig It Up
TTITLE12=Intro: Folk Song/Tibetan children
TTITLE13=Mystic Book
EXTD=YEAR: 2004
EXTT0=
EXTT1=
EXTT2=
EXTT3=
EXTT4=
EXTT5=
EXTT6=
EXTT7=
EXTT8=
EXTT9=
EXTT10=
EXTT11=
EXTT12=
EXTT13=
PLAYORDER=
